<svg xmlns="http://www.w3.org/2000/svg" viewBox="0 0 640 420" fill="none">
  <defs>
    <linearGradient id="c" x1="40" y1="20" x2="620" y2="420" gradientUnits="userSpaceOnUse">
      <stop stop-color="#E9F5FF"/>
      <stop offset="1" stop-color="#EEF8E8"/>
    </linearGradient>
  </defs>
  <rect width="640" height="420" rx="28" fill="url(#c)"/>
  <rect x="60" y="78" width="520" height="270" rx="24" fill="#102A43"/>
  <rect x="84" y="102" width="340" height="164" rx="14" fill="#1E3A5F"/>
  <rect x="438" y="102" width="118" height="244" rx="14" fill="#17324E"/>
  <path d="M116 164C158 142 198 138 236 154C278 172 316 176 392 150" stroke="#4ADE80" stroke-width="8" stroke-linecap="round"/>
  <path d="M116 214C148 194 190 196 224 214C254 230 312 232 392 206" stroke="#38BDF8" stroke-width="8" stroke-linecap="round"/>
  <circle cx="214" cy="154" r="10" fill="#4ADE80"/>
  <circle cx="298" cy="170" r="10" fill="#F59E0B"/>
  <circle cx="332" cy="200" r="10" fill="#FB7185"/>
  <rect x="460" y="138" width="76" height="16" rx="8" fill="#87A3C4"/>
  <rect x="460" y="170" width="62" height="12" rx="6" fill="#4ADE80"/>
  <rect x="460" y="194" width="90" height="12" rx="6" fill="#38BDF8"/>
  <rect x="460" y="218" width="70" height="12" rx="6" fill="#F59E0B"/>
  <rect x="460" y="242" width="84" height="12" rx="6" fill="#FB7185"/>
</svg>
