<svg xmlns="http://www.w3.org/2000/svg" viewBox="0 0 640 420" fill="none">
  <defs>
    <linearGradient id="g" x1="60" y1="40" x2="620" y2="390" gradientUnits="userSpaceOnUse">
      <stop stop-color="#E5F6D8"/>
      <stop offset="1" stop-color="#F5E6CC"/>
    </linearGradient>
  </defs>
  <rect width="640" height="420" rx="28" fill="url(#g)"/>
  <rect x="58" y="264" width="524" height="92" rx="18" fill="#86B86A"/>
  <rect x="86" y="188" width="180" height="126" rx="14" fill="#748B43"/>
  <rect x="294" y="156" width="220" height="160" rx="16" fill="#4D5D28"/>
  <path d="M98 202L134 170L166 202" stroke="#FFDA8A" stroke-width="10" stroke-linecap="round"/>
  <circle cx="360" cy="222" r="14" fill="#FF9347"/>
  <circle cx="412" cy="240" r="12" fill="#F97316"/>
  <circle cx="458" cy="210" r="10" fill="#EA580C"/>
  <rect x="118" y="94" width="190" height="22" rx="11" fill="#335C43"/>
  <rect x="332" y="82" width="142" height="18" rx="9" fill="#335C43"/>
  <path d="M0 308C96 266 177 260 277 286C378 311 471 316 640 272V420H0V308Z" fill="#4A7A4A" fill-opacity="0.4"/>
</svg>
